<svg id="Layer_1" xmlns="http://www.w3.org/2000/svg" version="1.1" viewBox="0 0 899 130">
          <defs>
            <style>
              .st0 {
                fill: #fff;
              }
            </style>
          </defs>
          <path class="st0" d="M65,130c35.9,0,65-29.1,65-65h-23.9c-1.5,0-2.7,1.2-2.7,2.7,0,21.7-17.6,37.5-39.3,37.5s-39.3-17.6-39.3-39.3,17.6-39.3,39.3-39.3.6,0,.9,0h0s52.4,0,52.4,0c-.1-.2-.2-.3-.4-.5l1.9-1.6C126,18.3,130,9.4,130,0h-63.2,0C66.2,0,65.6,0,65,0,29.1,0,0,29.1,0,65s29.1,65,65,65Z"/>
          <path class="st0" d="M77.4,64.4c0,6.9-5.6,12.4-12.4,12.4s-12.4-5.6-12.4-12.4,5.6-12.4,12.4-12.4,12.4,5.6,12.4,12.4Z"/>
          <path class="st0" d="M885.1,50h13.1l-21.9,58.9c-5.5,14.8-14.8,21.8-27.9,21v-11.5c3.9.2,7-.6,9.4-2.5,2.4-1.8,4.3-4.7,5.8-8.7l.6-1.1-24.2-56.1h13.5l17,41.5,14.6-41.5Z"/>
          <path class="st0" d="M834.3,61.9h-14.2v27.4c0,2.4.5,4.1,1.6,5.1,1.1,1,2.6,1.6,4.7,1.7,2.1,0,4.8,0,7.9-.1v11.1c-9.4,1.1-16.2.3-20.3-2.4-4.1-2.8-6.2-8-6.2-15.4v-27.4h-10.5v-11.9h10.5v-12.3l12.3-3.7v16h14.2v11.9Z"/>
          <path class="st0" d="M787.4,39.1c-1.5,1.5-3.4,2.3-5.5,2.3s-4-.8-5.6-2.3c-1.5-1.6-2.3-3.5-2.3-5.6s.8-4,2.3-5.5c1.5-1.6,3.4-2.4,5.6-2.4s4.1.8,5.6,2.4c1.5,1.5,2.3,3.4,2.3,5.5s-.8,4-2.4,5.6ZM775.7,107.1v-57.1h12.3v57.1h-12.3Z"/>
          <path class="st0" d="M764.5,61.9h-14.2v27.4c0,2.4.5,4.1,1.6,5.1,1.1,1,2.6,1.6,4.7,1.7,2.1,0,4.8,0,7.9-.1v11.1c-9.4,1.1-16.2.3-20.3-2.4-4.1-2.8-6.2-8-6.2-15.4v-27.4h-10.5v-11.9h10.5v-12.3l12.3-3.7v16h14.2v11.9Z"/>
          <path class="st0" d="M697.5,48.5c6.5,0,11.8,2.1,15.9,6.3,4,4.2,6.1,9.9,6.1,17.2v35.1h-12.3v-33.8c0-4.3-1.1-7.5-3.4-9.8-2.3-2.3-5.4-3.4-9.4-3.4s-7.8,1.4-10.5,4.1c-2.7,2.7-4,6.8-4,12.3v30.6h-12.3v-57.1h12.3v7.3c3.7-5.9,9.6-8.8,17.7-8.8Z"/>
          <path class="st0" d="M610.6,83.8c.9,4.3,3,7.7,6.3,10.1,3.3,2.3,7.3,3.4,12,3.4s11.5-2.4,14.7-7.1l10.2,5.9c-5.6,8.3-14,12.5-25,12.5s-16.8-2.8-22.5-8.5c-5.7-5.7-8.6-12.9-8.6-21.6s2.8-15.6,8.5-21.4c5.6-5.8,12.9-8.7,21.7-8.7s15.2,2.9,20.6,8.8c5.4,5.9,8.1,13,8.1,21.4s-.2,3-.5,5.1h-45.5ZM610.5,73.7h33.6c-.8-4.6-2.8-8.1-5.8-10.5-3-2.4-6.5-3.5-10.5-3.5s-8.4,1.3-11.4,3.8c-3,2.5-5,5.9-5.8,10.3Z"/>
          <path class="st0" d="M574.2,27.1h12.3v80h-12.3v-8.2c-4.6,6.5-11.3,9.7-20,9.7s-14.5-2.9-20.1-8.7c-5.6-5.9-8.3-13-8.3-21.4s2.8-15.6,8.3-21.4c5.6-5.8,12.3-8.7,20.1-8.7s15.3,3.2,20,9.6v-31ZM543.3,91.7c3.4,3.4,7.7,5.1,12.9,5.1s9.5-1.7,12.9-5.1c3.4-3.5,5.1-7.9,5.1-13.1s-1.7-9.6-5.1-13c-3.4-3.5-7.7-5.3-12.9-5.3s-9.5,1.8-12.9,5.3c-3.4,3.4-5.1,7.8-5.1,13s1.7,9.6,5.1,13.1Z"/>
          <path class="st0" d="M514,39.1c-1.5,1.5-3.4,2.3-5.5,2.3s-4-.8-5.6-2.3c-1.5-1.6-2.3-3.5-2.3-5.6s.8-4,2.3-5.5c1.5-1.6,3.4-2.4,5.6-2.4s4.1.8,5.6,2.4c1.5,1.5,2.3,3.4,2.3,5.5s-.8,4-2.4,5.6ZM502.3,107.1v-57.1h12.3v57.1h-12.3Z"/>
          <path class="st0" d="M417,83.8c.9,4.3,3,7.7,6.3,10.1,3.3,2.3,7.3,3.4,12,3.4s11.5-2.4,14.7-7.1l10.2,5.9c-5.6,8.3-14,12.5-25,12.5s-16.8-2.8-22.5-8.5c-5.7-5.7-8.6-12.9-8.6-21.6s2.8-15.6,8.5-21.4c5.6-5.8,12.9-8.7,21.7-8.7s15.2,2.9,20.6,8.8c5.4,5.9,8.1,13,8.1,21.4s-.2,3-.5,5.1h-45.5ZM416.9,73.7h33.6c-.8-4.6-2.8-8.1-5.8-10.5-3-2.4-6.5-3.5-10.5-3.5s-8.4,1.3-11.4,3.8c-3,2.5-5,5.9-5.8,10.3Z"/>
          <path class="st0" d="M380.6,27.1h12.3v80h-12.3v-8.2c-4.6,6.5-11.3,9.7-20,9.7s-14.5-2.9-20.1-8.7c-5.6-5.9-8.3-13-8.3-21.4s2.8-15.6,8.3-21.4c5.6-5.8,12.3-8.7,20.1-8.7s15.3,3.2,20,9.6v-31ZM349.6,91.7c3.4,3.4,7.7,5.1,12.9,5.1s9.5-1.7,12.9-5.1c3.4-3.5,5.1-7.9,5.1-13.1s-1.7-9.6-5.1-13c-3.4-3.5-7.7-5.3-12.9-5.3s-9.5,1.8-12.9,5.3c-3.4,3.4-5.1,7.8-5.1,13s1.7,9.6,5.1,13.1Z"/>
          <path class="st0" d="M320.3,39.1c-1.5,1.5-3.4,2.3-5.5,2.3s-4-.8-5.6-2.3c-1.5-1.6-2.3-3.5-2.3-5.6s.8-4,2.3-5.5c1.5-1.6,3.4-2.4,5.6-2.4s4.1.8,5.6,2.4c1.5,1.5,2.3,3.4,2.3,5.5s-.8,4-2.4,5.6ZM308.7,107.1v-57.1h12.3v57.1h-12.3Z"/>
          <path class="st0" d="M282,107.1V23.7h12.3v83.4h-12.3Z"/>
          <path class="st0" d="M270.8,65.7v5.5c0,11-3.6,20-10.9,27-7.2,6.9-16.7,10.4-28.3,10.4s-22.5-4-30.6-12c-8-8-12-17.8-12-29.5s4-21.4,12-29.4c8.1-8.1,18-12.1,29.9-12.1s14.3,1.7,20.4,5.1,11,8,14.4,13.8l-11.3,6.5c-2.1-3.8-5.3-6.9-9.5-9.1-4.2-2.4-8.9-3.5-14.1-3.5-8.4,0-15.3,2.7-20.7,8.2-5.4,5.5-8.1,12.3-8.1,20.6s2.7,15,8.1,20.4c5.5,5.4,12.6,8.1,21.5,8.1s12.8-1.6,17.2-4.9c4.5-3.4,7.3-7.8,8.6-13.4h-26.7v-11.8h40Z"/>
        </svg>