  <!-- Replace this with your actual SVG logo -->
        <svg id="Layer_1" xmlns="http://www.w3.org/2000/svg" version="1.1" viewBox="0 0 346.1 84.6">
          <defs>
            <style>
              .st0 {
                fill: #fff;
              }
            </style>
          </defs>
          <path class="st0" d="M35.2,70.4C15.8,70.4,0,54.6,0,35.2S15.8,0,35.2,0s35.2,15.8,35.2,35.2-15.7,35.2-35.2,35.2Z"/>
          <path class="st0" d="M121.9,66.5h-9.5V12.4h-20.9V3.7h51.3v8.8h-20.9v54.1h0Z"/>
          <path class="st0" d="M181.7,44.2v1.5h-35.5c1,9.3,6.6,14.1,14.2,14.1s10.3-3.5,12.3-7.5l8,3.1c-3.6,7.2-10.2,12-20.3,12-14.5,0-23.7-9.5-23.7-24.8s9.2-24.8,22.8-24.8,22.3,10.5,22.3,26.3h-.1ZM146.2,38.9h26c0-8-5.6-13.3-12.8-13.3s-12.1,4.6-13.2,13.3Z"/>
          <path class="st0" d="M197.6,66.5h-9.5V1.7h9.5v64.8Z"/>
          <path class="st0" d="M226,84.6c-12.2,0-20.5-6-21.2-15.2h9.5c.8,4.5,5.2,7.6,12.5,7.6s13.2-4,13.2-13.1v-7.2c-1.4,3.6-6.2,8.4-14.6,8.4-13.2,0-21.6-9.8-21.6-23.3s8.4-23.8,21.6-23.8,13.3,4.8,15,8.4v-7.4h9.1v45.3c0,13.4-9.1,20.5-23.5,20.5v-.2ZM226.7,57.5c9.3,0,13.3-7.8,13.3-15.7s-4-15.8-13.3-15.8-13.3,7.9-13.3,15.8,4.8,15.7,13.3,15.7Z"/>
          <path class="st0" d="M300,44.2v1.5h-35.5c1,9.3,6.6,14.1,14.2,14.1s10.3-3.5,12.3-7.5l8,3.1c-3.6,7.2-10.2,12-20.3,12-14.5,0-23.7-9.5-23.7-24.8s9.2-24.8,22.8-24.8,22.3,10.5,22.3,26.3h-.1ZM264.4,38.9h26c0-8-5.6-13.3-12.8-13.3s-12.1,4.6-13.2,13.3Z"/>
          <path class="st0" d="M321.6,67.5c-9.3,0-16.9-5.5-16.9-14.1s7-12.8,15.5-14.1l9.7-1.5c3.3-.6,6.1-1.6,6.1-5.1s-4.8-7.4-9.4-7.4-10.7,3.3-11.2,9.4h-9.6c.2-9.8,8.7-16.7,20.9-16.7s19.4,6.4,19.4,17.8v30.8h-9.1v-6.7c-3,4.8-8.3,7.6-15.3,7.6h-.1ZM323.6,60.3c6.7,0,13-4.4,13-11.8v-5.2l-10.5,1.7c-6.2,1-11.4,2.6-11.4,8.1s4.4,7.2,9,7.2h-.1Z"/>
        </svg>